<?xml version="1.0" encoding="UTF-8"?>
<svg width="222px" height="70px" viewBox="0 0 222 70" version="1.1" xmlns="http://www.w3.org/2000/svg" xmlns:xlink="http://www.w3.org/1999/xlink">
    <title>k12-logo-blue</title>
    <g id="Page-1" stroke="none" stroke-width="1" fill="none" fill-rule="evenodd">
        <g id="k12-logo-blue" fill="#1a152c" fill-rule="nonzero">
            <path d="M127.7,41.4 C126.9,40.3 126.9,38.8 127.7,37.8 L144.3,16 C145.8,14 144.4,11.2 141.9,11.2 L132.1,11.2 C131.2,11.2 130.3,11.7 129.7,12.4 L114.2,33.5 L114.2,33.5 L114.2,14.2 C114.2,12.6 112.9,11.2 111.2,11.2 L102.3,11.2 C100.7,11.2 99.3,12.5 99.3,14.2 L99.3,66.3 C99.3,67.9 100.6,69.3 102.3,69.3 L111.2,69.3 C112.8,69.3 114.2,68 114.2,66.3 L114.2,46.8 L130,68 C130.6,68.8 131.4,69.2 132.4,69.2 L143.4,69.2 C145.9,69.2 147.3,66.4 145.7,64.4 L127.7,41.4 Z" id="Path"></path>
            <path d="M168.2,11.2 L153.4,11.2 C151.6,11.2 150.2,12.6 150.2,14.4 L150.2,19.8 C150.2,21.6 151.6,23 153.4,23 L154.7,23 C156.5,23 157.9,24.4 157.9,26.2 L157.9,66 C157.9,67.8 159.3,69.2 161.1,69.2 L168.1,69.2 C169.9,69.2 171.3,67.8 171.3,66 L171.3,14.4 C171.4,12.6 170,11.2 168.2,11.2 Z" id="Path"></path>
            <path d="M219.6,58.3 L201,58.3 C199.2,58.3 198.5,56 200,55 C203.5,52.6 207.9,49.6 209.5,48.4 C214.5,44.7 219.8,40.4 221.1,34 C222.4,27.8 220.7,20.5 216.3,15.9 C212.7,12.2 207.6,10.6 202.5,10.6 C196.9,10.6 191.7,12.1 188.1,16.5 C186.4,18.5 185.2,20.9 184.3,23.4 C184.1,24.1 182.7,30.6 183,30.6 L193.3,30.6 C194.2,30.6 194.9,30 195.1,29.1 C195.7,25.4 197.4,22.5 202.6,22.5 C207.4,22.5 209.8,25.8 209.7,30.6 C209.6,35.6 199.3,41 191.7,46.9 L183.8,52.7 C183.3,53 183.1,53.6 183.1,54.2 L183.1,67.5 C183.1,68.5 183.9,69.3 184.9,69.3 L219.7,69.3 C220.7,69.3 221.5,68.5 221.5,67.5 L221.5,60.2 C221.4,59.1 220.6,58.3 219.6,58.3 Z" id="Path"></path>
            <path d="M78.8,11.2 L32.7,11.2 C31,11.2 29.6,12.6 29.6,14.3 L29.6,33 L36.8,33 L36.8,40.3 L29.6,40.3 L29.6,54.8 L36.8,54.8 L36.8,62.1 L29.6,62.1 L29.6,66.3 C29.6,68 31,69.4 32.7,69.4 L78.8,69.4 C80.5,69.4 81.9,68 81.9,66.3 L81.9,14.3 C81.9,12.6 80.5,11.2 78.8,11.2 Z M44.1,18.5 L51.4,18.5 L51.4,25.8 L44.1,25.8 L44.1,18.5 Z M44.1,47.5 L36.8,47.5 L36.8,40.2 L44.1,40.2 L44.1,47.5 Z M44.1,33 L51.4,33 L51.4,40.3 L44.1,40.3 L44.1,33 Z M58.6,54.7 L51.3,54.7 L51.3,47.4 L58.6,47.4 L58.6,54.7 Z M73.1,47.5 L65.8,47.5 L65.8,40.2 L73.1,40.2 L73.1,47.5 Z" id="Shape"></path>
            <polygon id="Path" points="29.6 33 22.3 33 22.3 40.2 29.6 40.2 29.6 40.2"></polygon>
            <polygon id="Path" points="29.6 54.7 22.3 54.7 22.3 62 29.6 62 29.6 62"></polygon>
            <path d="M76,3.4 C76,1.3 74,-0.1 72.1,0.4 L39.3,8.7 L76,8.7 L76,3.4 Z" id="Path"></path>
            <rect id="Rectangle" x="15.1" y="11.2" width="7.3" height="7.3"></rect>
            <rect id="Rectangle" x="0.6" y="25.7" width="7.3" height="7.3"></rect>
            <rect id="Rectangle" x="15.1" y="25.7" width="7.3" height="7.3"></rect>
            <rect id="Rectangle" x="15.1" y="40.2" width="7.3" height="7.3"></rect>
            <rect id="Rectangle" x="7.8" y="47.5" width="7.3" height="7.3"></rect>
        </g>
    </g>
</svg>