<svg xmlns="http://www.w3.org/2000/svg">
    <title>K12 Icon</title>
    <g id="k12_logo" stroke="none" stroke-width="1" fill="none" fill-rule="evenodd">
        <g transform="translate(0.000000, 14.000000)" fill="#FFFFFF" id="Path">
            <path d="M30.3470517,2.52192964 C30.1167468,2.52192964 29.932503,2.61405492 29.7943201,2.79830549 L26.224595,7.66942985 L26.224595,3.2013536 C26.224595,3.00942593 26.1555036,2.84820668 26.0173207,2.71769586 C25.8868146,2.58718505 25.7256012,2.52192964 25.5336805,2.52192964 L23.4724522,2.52192964 C23.2805315,2.52192964 23.1193181,2.58718505 22.988812,2.71769586 C22.8583059,2.84820668 22.7930529,3.00942593 22.7930529,3.2013536 L22.7930529,15.2121874 C22.7930529,15.396438 22.8583059,15.5576573 22.988812,15.6958452 C23.1193181,15.826356 23.2805315,15.8916114 23.4724522,15.8916114 L25.5336805,15.8916114 C25.7256012,15.8916114 25.8868146,15.826356 26.0173207,15.6958452 C26.1555036,15.5576573 26.224595,15.396438 26.224595,15.2121874 L26.224595,10.7210799 L29.8288658,15.6152356 C29.9747255,15.7994861 30.1589694,15.8916114 30.3815974,15.8916114 L32.9264659,15.8916114 C33.2105085,15.8916114 33.4139445,15.7649391 33.5367737,15.5115946 C33.6672798,15.250573 33.6442493,15.0087441 33.4676823,14.786108 L29.3221951,9.47738854 C29.2223964,9.35455483 29.172497,9.21636691 29.172497,9.06282477 C29.172497,8.90928263 29.218558,8.7710947 29.3106799,8.64826099 L33.1337403,3.61591738 C33.3103073,3.39328128 33.3333378,3.15529096 33.2028317,2.90194643 C33.0800025,2.6486019 32.8765665,2.52192964 32.5925239,2.52192964 L30.3470517,2.52192964 Z"></path>
            <path d="M39.1562119,2.74072718 C39.0103521,2.59486215 38.8337851,2.52192964 38.6265107,2.52192964 L35.2295143,2.52192964 C35.0299168,2.52192964 34.8571882,2.59486215 34.7113284,2.74072718 C34.5654687,2.88659222 34.4925388,3.06316568 34.4925388,3.27044756 L34.4925388,4.50262323 C34.4925388,4.70990512 34.5654687,4.88647858 34.7113284,5.03234361 C34.8571882,5.17820864 35.0299168,5.25114116 35.2295143,5.25114116 L35.5289106,5.25114116 C35.736185,5.25114116 35.912752,5.32407368 36.0586117,5.46993871 C36.2044715,5.61580374 36.2774013,5.7923772 36.2774013,5.99965909 L36.2774013,15.1430935 C36.2774013,15.3503754 36.3503312,15.5269488 36.4961909,15.6728139 C36.6420507,15.8186789 36.8186177,15.8916114 37.0258921,15.8916114 L38.6265107,15.8916114 C38.8337851,15.8916114 39.0103521,15.8186789 39.1562119,15.6728139 C39.3020716,15.5269488 39.3750015,15.3503754 39.3750015,15.1430935 L39.3750015,3.27044756 C39.3750015,3.06316568 39.3020716,2.88659222 39.1562119,2.74072718 Z"></path>
            <path d="M48.1726464,7.00152155 C48.1572927,7.47750218 47.6813294,8.07631652 46.7447564,8.79796458 C45.5241407,9.65012345 44.6221134,10.3026775 44.0386745,10.7556269 L42.207751,12.0799278 C42.0925986,12.1720531 42.0350224,12.2872097 42.0350224,12.4253976 L42.0350224,15.4770476 C42.0350224,15.5922042 42.0772449,15.6920066 42.16169,15.7764548 C42.2461351,15.8532259 42.3459339,15.8916114 42.4610863,15.8916114 L50.4756948,15.8916114 C50.5908472,15.8916114 50.690646,15.8532259 50.7750911,15.7764548 C50.8518594,15.6920066 50.8902435,15.5922042 50.8902435,15.4770476 L50.8902435,13.7842455 C50.8902435,13.6690889 50.8518594,13.5731251 50.7750911,13.496354 C50.690646,13.4119059 50.5908472,13.3696818 50.4756948,13.3696818 L46.1920247,13.3696818 C45.9924272,13.3696818 45.8619211,13.2737179 45.8005065,13.0817903 C45.7390919,12.8821855 45.7928297,12.7248048 45.9617199,12.6096482 L48.1611311,11.1010967 C48.8904298,10.5560221 49.439323,10.0800414 49.8078108,9.67315477 C50.3528655,9.06666332 50.690646,8.43714055 50.8211521,7.78458646 C50.9670118,7.0552613 50.9439813,6.31442047 50.7520606,5.56206399 C50.5524631,4.77899908 50.2031674,4.13028354 49.7041736,3.61591738 C48.9211371,2.80982115 47.8655733,2.40677303 46.537482,2.40677303 C45.063531,2.40677303 43.9542294,2.85972234 43.2095771,3.76562096 C42.8180588,4.2416016 42.5301778,4.76748342 42.3459339,5.34326644 C42.3152266,5.42771462 42.2499736,5.72328324 42.1501748,6.2299723 C42.050376,6.74433846 42.0119919,7.00152155 42.0350224,7.00152155 L44.4071622,7.00152155 C44.506961,7.00152155 44.5952445,6.96697457 44.6720128,6.8978806 C44.7564579,6.83646375 44.8025189,6.75585412 44.8101957,6.65605173 C44.886964,6.172394 45.044339,5.81156997 45.2823206,5.57357965 C45.5663633,5.28184959 45.9885888,5.13598456 46.5489973,5.13598456 C47.0863752,5.13598456 47.4970855,5.30871946 47.7811282,5.65418928 C48.057494,5.98430488 48.188,6.43341563 48.1726464,7.00152155 Z"></path>
            <path d="M18.7627182,15.1776405 L18.7627182,3.23590058 C18.7627182,3.04397291 18.6936267,2.87507656 18.5554438,2.72921152 C18.4172609,2.5910236 18.2483707,2.52192964 18.0487732,2.52192964 L7.43172,2.52192964 C7.23979929,2.52192964 7.07090908,2.5910236 6.92504934,2.72921152 C6.78686644,2.87507656 6.71777499,3.04397291 6.71777499,3.23590058 L6.71777499,7.53124193 L8.38748509,7.53124193 L8.38748509,9.21252835 L10.0571952,9.21252835 L10.0571952,7.53124193 L11.7269053,7.53124193 L11.7269053,9.21252835 L10.0571952,9.21252835 L10.0571952,10.8822991 L8.38748509,10.8822991 L8.38748509,9.21252835 L6.71777499,9.21252835 L6.71777499,12.5520699 L8.38748509,12.5520699 L8.38748509,14.2218406 L6.71777499,14.2218406 L6.71777499,15.1776405 C6.71777499,15.3772452 6.78686644,15.5461416 6.92504934,15.6843295 C7.07090908,15.8225174 7.23979929,15.8916114 7.43172,15.8916114 L18.0487732,15.8916114 C18.2483707,15.8916114 18.4172609,15.8225174 18.5554438,15.6843295 C18.6936267,15.5461416 18.7627182,15.3772452 18.7627182,15.1776405 Z" fill-rule="nonzero"></path>
            <polygon fill-rule="nonzero" points="10.0571952 4.1917004 11.7269053 4.1917004 11.7269053 5.86147116 10.0571952 5.86147116"></polygon>
            <polygon fill-rule="nonzero" points="11.7269053 10.8822991 13.3966154 10.8822991 13.3966154 12.5520699 11.7269053 12.5520699"></polygon>
            <polygon fill-rule="nonzero" points="16.7475508 9.21252835 16.7475508 10.8822991 15.0778407 10.8822991 15.0778407 9.21252835"></polygon>
            <polygon points="6.71777499 9.21252835 6.71777499 7.53124193 5.04806489 7.53124193 5.04806489 9.21252835"></polygon>
            <polygon points="6.71777499 14.2218406 6.71777499 12.5520699 5.04806489 12.5520699 5.04806489 14.2218406"></polygon>
            <path d="M17.4039196,1.94614661 L17.4039196,0.713970947 C17.4039196,0.475980632 17.3117977,0.287891511 17.1275538,0.149703586 C16.9356331,0.00383855348 16.7245203,-0.0345469813 16.4942155,0.0345469813 L8.9402167,1.94614661 L17.4039196,1.94614661 Z"></path>
            <polygon points="5.04806489 4.1917004 5.04806489 2.52192964 3.37835479 2.52192964 3.37835479 4.1917004"></polygon>
            <polygon points="1.69712945 7.53124193 1.69712945 5.86147116 0.0274193548 5.86147116 0.0274193548 7.53124193"></polygon>
            <polygon points="5.04806489 7.53124193 5.04806489 5.86147116 3.37835479 5.86147116 3.37835479 7.53124193"></polygon>
            <polygon points="5.04806489 10.8822991 5.04806489 9.21252835 3.37835479 9.21252835 3.37835479 10.8822991"></polygon>
            <polygon points="3.37835479 10.8822991 1.69712945 10.8822991 1.69712945 12.5520699 3.37835479 12.5520699"></polygon>
        </g>
        <text id="powered-by" font-family="Poppins-Regular, Poppins" font-size="8" font-weight="normal" fill="#D7E7F4">
            <tspan x="3" y="8">powered by</tspan>
        </text>
    </g>
</svg>